<svg width="242" height="242" viewBox="0 0 242 242" fill="none" xmlns="http://www.w3.org/2000/svg">
<g filter="url(#filter0_d_8184_657)">
<path d="M20.3255 95.2329C20.3255 90.7247 16.6709 87.0701 12.1628 87.0701C7.65464 87.0701 4.00001 90.7247 4.00001 95.2329H20.3255ZM221.674 138.768C221.674 143.276 225.329 146.93 229.837 146.93C234.345 146.93 237.999 143.276 237.999 138.768H221.674ZM5.14377 50.899C4.70255 55.3856 7.98181 59.3804 12.4683 59.8217C16.9549 60.263 20.9496 56.9837 21.391 52.4972L5.14377 50.899ZM236.856 183.101C237.297 178.615 234.017 174.62 229.531 174.179C225.045 173.738 221.05 177.017 220.608 181.504L236.856 183.101ZM142.767 217.674H99.2323V234H142.767V217.674ZM20.3255 138.768V95.2329H4.00001V138.768H20.3255ZM221.674 134.01V138.768H237.999V134.01H221.674ZM152.467 36.582L195.553 75.3595L206.474 63.2247L163.388 24.4473L152.467 36.582ZM237.999 134.01C237.999 115.634 238.164 104 233.527 93.5891L218.614 100.231C221.51 106.731 221.674 114.192 221.674 134.01H237.999ZM195.553 75.3595C210.283 88.6167 215.719 93.7308 218.614 100.231L233.527 93.5891C228.891 83.1782 220.133 75.5174 206.474 63.2247L195.553 75.3595ZM99.5567 16.3261C116.773 16.3261 123.269 16.4521 129.059 18.674L134.908 3.43218C125.637 -0.125482 115.536 0.000551733 99.5567 0.000551733V16.3261ZM163.388 24.4473C151.569 13.8096 144.179 6.98941 134.908 3.43218L129.059 18.674C134.851 20.8965 139.736 25.124 152.467 36.582L163.388 24.4473ZM99.2323 217.674C78.4791 217.674 63.7353 217.657 52.5505 216.153C41.6006 214.681 35.2918 211.92 30.6857 207.314L19.1418 218.859C27.2869 227.003 37.6148 230.617 50.3752 232.334C62.9006 234.017 78.9406 234 99.2323 234V217.674ZM4.00001 138.768C4.00001 159.059 3.9827 175.1 5.66663 187.625C7.38222 200.385 10.9969 210.713 19.1418 218.859L30.6857 207.314C26.0797 202.708 23.3188 196.399 21.8467 185.45C20.3429 174.265 20.3255 159.521 20.3255 138.768H4.00001ZM142.767 234C163.059 234 179.099 234.017 191.624 232.334C204.384 230.617 214.713 227.003 222.858 218.859L211.314 207.314C206.708 211.92 200.398 214.681 189.449 216.153C178.264 217.657 163.52 217.674 142.767 217.674V234ZM99.5567 0.000551733C79.1561 0.000551733 63.0377 -0.0166448 50.4611 1.66652C37.6559 3.38037 27.2932 6.99115 19.1418 15.1424L30.6857 26.6863C35.2855 22.0866 41.6136 19.3218 52.6267 17.8479C63.8685 16.3433 78.696 16.3261 99.5567 16.3261V0.000551733ZM21.391 52.4972C22.7125 39.0627 25.5546 31.8174 30.6857 26.6863L19.1418 15.1424C10.0549 24.2294 6.606 36.0334 5.14377 50.899L21.391 52.4972ZM220.608 181.504C219.287 194.937 216.444 202.183 211.314 207.314L222.858 218.859C231.945 209.771 235.394 197.967 236.856 183.101L220.608 181.504Z" fill="#4C785D"/>
<path d="M131.884 13.6074V40.8167C131.884 66.4697 131.884 79.2963 139.853 87.2658C147.823 95.2351 160.649 95.2351 186.302 95.2351H229.837" stroke="#4C785D" stroke-width="16.3255"/>
</g>
<defs>
<filter id="filter0_d_8184_657" x="0" y="0" width="242" height="242" filterUnits="userSpaceOnUse" color-interpolation-filters="sRGB">
<feFlood flood-opacity="0" result="BackgroundImageFix"/>
<feColorMatrix in="SourceAlpha" type="matrix" values="0 0 0 0 0 0 0 0 0 0 0 0 0 0 0 0 0 0 127 0" result="hardAlpha"/>
<feOffset dy="4"/>
<feGaussianBlur stdDeviation="2"/>
<feComposite in2="hardAlpha" operator="out"/>
<feColorMatrix type="matrix" values="0 0 0 0 0 0 0 0 0 0 0 0 0 0 0 0 0 0 0.25 0"/>
<feBlend mode="normal" in2="BackgroundImageFix" result="effect1_dropShadow_8184_657"/>
<feBlend mode="normal" in="SourceGraphic" in2="effect1_dropShadow_8184_657" result="shape"/>
</filter>
</defs>
</svg>
