<svg width="246" height="236" viewBox="0 0 246 236" fill="none" xmlns="http://www.w3.org/2000/svg">
<path d="M245.833 123.583L201.167 15.825C176.284 5.95168 149.769 0.838089 123 0.75C96.2305 0.838089 69.7156 5.95168 44.8333 15.825L0.166626 123.583V134.75C0.166626 146.596 4.87257 157.957 13.2492 166.334C21.6258 174.711 32.987 179.417 44.8333 179.417C56.6796 179.417 68.0408 174.711 76.4174 166.334C84.794 157.957 89.5 146.596 89.5 134.75V123.583L53.7666 39.8333L55.4416 35.3667C73.5403 28.6378 92.5525 24.6848 111.833 23.6417V212.917H72.75C69.7884 212.917 66.9481 214.093 64.8539 216.187C62.7598 218.281 61.5833 221.122 61.5833 224.083C61.5833 227.045 62.7598 229.885 64.8539 231.979C66.9481 234.074 69.7884 235.25 72.75 235.25H173.25C176.212 235.25 179.052 234.074 181.146 231.979C183.24 229.885 184.417 227.045 184.417 224.083C184.417 221.122 183.24 218.281 181.146 216.187C179.052 214.093 176.212 212.917 173.25 212.917H134.167V23.6417C153.447 24.6848 172.46 28.6378 190.558 35.3667L192.233 39.8333L156.5 123.583V134.75C156.5 146.596 161.206 157.957 169.583 166.334C177.959 174.711 189.32 179.417 201.167 179.417C213.013 179.417 224.374 174.711 232.751 166.334C241.127 157.957 245.833 146.596 245.833 134.75V123.583ZM44.8333 157.083C40.8791 157.119 36.9863 156.104 33.5529 154.142C30.1196 152.18 27.2687 149.341 25.2916 145.917H64.375C62.3979 149.341 59.547 152.18 56.1136 154.142C52.6803 156.104 48.7875 157.119 44.8333 157.083ZM68.2833 123.583H18.0333L44.8333 63.8417L68.2833 123.583ZM201.167 63.8417L224.617 123.583H174.367L201.167 63.8417ZM201.167 157.083C197.212 157.119 193.32 156.104 189.886 154.142C186.453 152.18 183.602 149.341 181.625 145.917H220.708C218.731 149.341 215.88 152.18 212.447 154.142C209.014 156.104 205.121 157.119 201.167 157.083Z" fill="#4C785D"/>
</svg>
