<svg width="302" height="249" viewBox="0 0 302 249" fill="none" xmlns="http://www.w3.org/2000/svg">
<path d="M122.128 219.57C122.128 213.362 117.095 208.33 110.888 208.33H26.0027C19.7958 208.33 14.7629 213.363 14.7629 219.57C14.7629 221.526 15.2637 223.365 16.1434 224.968H0V248.272H136.89V224.968H120.747C121.626 223.365 122.128 221.526 122.128 219.57Z" fill="#4C785D"/>
<path d="M107.683 27.392L179.405 72.9365C184.983 75.7789 191.912 73.9637 195.335 68.5722L198.777 63.1543C202.412 57.4279 200.718 49.8392 194.992 46.2028L125.249 1.91516C119.524 -1.72064 111.935 -0.0267079 108.299 5.69971L104.857 11.1182C101.435 16.5091 102.738 23.5524 107.683 27.392Z" fill="#4C785D"/>
<path d="M301.476 201.382L301.426 200.297L301.337 199.274C301.291 198.574 301.193 197.952 301.107 197.312C300.763 194.755 300.176 192.58 299.459 190.611C298.003 186.702 295.946 183.741 293.419 181.523C292.79 180.964 292.117 180.474 291.449 179.976L289.446 178.48C288.117 177.474 286.761 176.51 285.414 175.533C284.069 174.549 282.708 173.592 281.346 172.637C279.988 171.676 278.625 170.724 277.25 169.79C274.515 167.899 271.751 166.055 268.979 164.217L264.809 161.485L260.616 158.788C257.812 157.006 255.004 155.229 252.177 153.482C249.354 151.728 246.52 149.991 243.67 148.281L235.112 143.161L226.497 138.129L217.835 133.173L209.131 128.283L200.384 123.458L191.597 118.699C188.657 117.128 185.72 115.554 182.761 114.014C179.809 112.466 176.859 110.91 173.886 109.393L171.193 113.635L157.621 107.238L172.792 83.3466L101.07 37.8027L63.7607 96.557L135.483 142.101L150.654 118.21L162.216 127.773L159.523 132.015C162.161 134.062 164.823 136.067 167.48 138.082C170.132 140.105 172.805 142.093 175.477 144.086L183.521 150.016L191.609 155.879L199.735 161.679L207.906 167.409L216.122 173.067L224.396 178.635C227.157 180.488 229.933 182.314 232.723 184.123C235.506 185.939 238.308 187.724 241.114 189.505L245.337 192.152L249.583 194.764C252.425 196.489 255.27 198.207 258.144 199.88C259.575 200.727 261.015 201.557 262.463 202.376C263.907 203.202 265.352 204.027 266.814 204.825C268.272 205.628 269.721 206.445 271.196 207.22L273.402 208.397C274.137 208.788 274.868 209.19 275.641 209.521C278.724 210.864 282.277 211.468 286.434 211.122C288.521 210.935 290.74 210.541 293.201 209.765C293.817 209.571 294.42 209.394 295.075 209.139L296.038 208.784L297.042 208.367C298.379 207.81 299.811 207.104 301.363 206.211C301.511 204.425 301.541 202.83 301.476 201.382Z" fill="#4C785D"/>
<path d="M41.5658 133.7L111.308 177.987C117.034 181.622 124.623 179.929 128.259 174.203L131.7 168.784C135.123 163.391 133.819 156.349 128.874 152.51L57.1527 106.966C51.5751 104.124 44.6457 105.939 41.2223 111.331L37.7818 116.749C34.1448 122.475 35.8394 130.065 41.5658 133.7Z" fill="#4C785D"/>
</svg>
