<svg width="212" height="253" viewBox="0 0 212 253" fill="none" xmlns="http://www.w3.org/2000/svg">
<g filter="url(#filter0_d_8184_640)">
<path d="M187.6 0H24.4C13.18 0 4 9.18 4 20.4V224.4C4 235.62 13.18 244.8 24.4 244.8H187.6C198.82 244.8 208 235.62 208 224.4V20.4C208 9.18 198.82 0 187.6 0ZM65.2 204C65.2 209.61 60.61 214.2 55 214.2H34.6C28.99 214.2 24.4 209.61 24.4 204V198.9C24.4 193.29 28.99 188.7 34.6 188.7H55C60.61 188.7 65.2 193.29 65.2 198.9V204ZM65.2 163.2C65.2 168.81 60.61 173.4 55 173.4H34.6C28.99 173.4 24.4 168.81 24.4 163.2V158.1C24.4 152.49 28.99 147.9 34.6 147.9H55C60.61 147.9 65.2 152.49 65.2 158.1V163.2ZM65.2 122.4C65.2 128.01 60.61 132.6 55 132.6H34.6C28.99 132.6 24.4 128.01 24.4 122.4V117.3C24.4 111.69 28.99 107.1 34.6 107.1H55C60.61 107.1 65.2 111.69 65.2 117.3V122.4ZM126.4 204C126.4 209.61 121.81 214.2 116.2 214.2H95.8C90.19 214.2 85.6 209.61 85.6 204V198.9C85.6 193.29 90.19 188.7 95.8 188.7H116.2C121.81 188.7 126.4 193.29 126.4 198.9V204ZM126.4 163.2C126.4 168.81 121.81 173.4 116.2 173.4H95.8C90.19 173.4 85.6 168.81 85.6 163.2V158.1C85.6 152.49 90.19 147.9 95.8 147.9H116.2C121.81 147.9 126.4 152.49 126.4 158.1V163.2ZM126.4 122.4C126.4 128.01 121.81 132.6 116.2 132.6H95.8C90.19 132.6 85.6 128.01 85.6 122.4V117.3C85.6 111.69 90.19 107.1 95.8 107.1H116.2C121.81 107.1 126.4 111.69 126.4 117.3V122.4ZM187.6 204C187.6 209.61 183.01 214.2 177.4 214.2H157C151.39 214.2 146.8 209.61 146.8 204V198.9C146.8 193.29 151.39 188.7 157 188.7H177.4C183.01 188.7 187.6 193.29 187.6 198.9V204ZM187.6 163.2C187.6 168.81 183.01 173.4 177.4 173.4H157C151.39 173.4 146.8 168.81 146.8 163.2V158.1C146.8 152.49 151.39 147.9 157 147.9H177.4C183.01 147.9 187.6 152.49 187.6 158.1V163.2ZM187.6 122.4C187.6 128.01 183.01 132.6 177.4 132.6H157C151.39 132.6 146.8 128.01 146.8 122.4V117.3C146.8 111.69 151.39 107.1 157 107.1H177.4C183.01 107.1 187.6 111.69 187.6 117.3V122.4ZM187.6 76.5C187.6 82.11 183.01 86.7 177.4 86.7H34.6C28.99 86.7 24.4 82.11 24.4 76.5V35.7C24.4 30.09 28.99 25.5 34.6 25.5H177.4C183.01 25.5 187.6 30.09 187.6 35.7V76.5Z" fill="#4C785D"/>
</g>
<defs>
<filter id="filter0_d_8184_640" x="0" y="0" width="212" height="252.801" filterUnits="userSpaceOnUse" color-interpolation-filters="sRGB">
<feFlood flood-opacity="0" result="BackgroundImageFix"/>
<feColorMatrix in="SourceAlpha" type="matrix" values="0 0 0 0 0 0 0 0 0 0 0 0 0 0 0 0 0 0 127 0" result="hardAlpha"/>
<feOffset dy="4"/>
<feGaussianBlur stdDeviation="2"/>
<feComposite in2="hardAlpha" operator="out"/>
<feColorMatrix type="matrix" values="0 0 0 0 0 0 0 0 0 0 0 0 0 0 0 0 0 0 0.25 0"/>
<feBlend mode="normal" in2="BackgroundImageFix" result="effect1_dropShadow_8184_640"/>
<feBlend mode="normal" in="SourceGraphic" in2="effect1_dropShadow_8184_640" result="shape"/>
</filter>
</defs>
</svg>
