<svg width="226" height="248" viewBox="0 0 226 248" fill="none" xmlns="http://www.w3.org/2000/svg">
<g filter="url(#filter0_d_8184_651)">
<path d="M13 142.2V97.8C13 55.9392 13 35.009 26.0044 22.0044C39.009 9 59.9392 9 101.8 9H124C165.86 9 186.792 9 199.795 22.0044C207.046 29.2548 210.254 38.9688 211.673 53.4M212.8 97.8V142.2C212.8 184.06 212.8 204.992 199.795 217.995C186.792 231 165.86 231 124 231H101.8C59.9392 231 39.009 231 26.0044 217.995C18.7541 210.745 15.546 201.031 14.1265 186.6" stroke="#4C785D" stroke-width="16.65" stroke-linecap="round"/>
<path d="M68.5 142.201H124" stroke="#4C785D" stroke-width="16.65" stroke-linecap="round"/>
<path d="M68.5 97.7988H79.6M157.3 97.7988H112.9" stroke="#4C785D" stroke-width="16.65" stroke-linecap="round"/>
</g>
<defs>
<filter id="filter0_d_8184_651" x="0.675049" y="0.675781" width="224.45" height="246.648" filterUnits="userSpaceOnUse" color-interpolation-filters="sRGB">
<feFlood flood-opacity="0" result="BackgroundImageFix"/>
<feColorMatrix in="SourceAlpha" type="matrix" values="0 0 0 0 0 0 0 0 0 0 0 0 0 0 0 0 0 0 127 0" result="hardAlpha"/>
<feOffset dy="4"/>
<feGaussianBlur stdDeviation="2"/>
<feComposite in2="hardAlpha" operator="out"/>
<feColorMatrix type="matrix" values="0 0 0 0 0 0 0 0 0 0 0 0 0 0 0 0 0 0 0.25 0"/>
<feBlend mode="normal" in2="BackgroundImageFix" result="effect1_dropShadow_8184_651"/>
<feBlend mode="normal" in="SourceGraphic" in2="effect1_dropShadow_8184_651" result="shape"/>
</filter>
</defs>
</svg>
