<svg width="1em" height="1em" viewBox="0 0 22 22" fill="none" xmlns="http://www.w3.org/2000/svg">
<path opacity="0.12" d="M9.5 9.5L7 11L9.5 12.5L11 15L12.5 12.5L15 11L12.5 9.5L11 7L9.5 9.5Z" />
<path d="M21 11C21 16.5228 16.5228 21 11 21M21 11C21 5.47715 16.5228 1 11 1M21 11H19M11 21C5.47715 21 1 16.5228 1 11M11 21V19M1 11C1 5.47715 5.47715 1 11 1M1 11H3M11 1V3M18.0711 18.0711L16.6569 16.6569M5.34315 5.34315L3.92893 3.92893M16.6569 5.34315L18.0711 3.92893M3.92893 18.0711L5.34315 16.6569M7 11L9.5 9.5L11 7L12.5 9.5L15 11L12.5 12.5L11 15L9.5 12.5L7 11Z" stroke="currentColor" stroke-width="2" stroke-linecap="round" stroke-linejoin="round"/>
</svg>
