<svg width="800" height="800" viewBox="0 0 800 800" fill="none" xmlns="http://www.w3.org/2000/svg">
<path d="M533.333 200H200C163.181 200 133.333 229.848 133.333 266.667V466.667C133.333 503.486 163.181 533.333 200 533.333H533.333C570.152 533.333 600 503.486 600 466.667V266.667C600 229.848 570.152 200 533.333 200Z" stroke="#749C5B" stroke-width="66.6667" stroke-linecap="round"/>
<path d="M700 300V566.667C700 603.487 670.153 633.333 633.333 633.333H233.333" stroke="#749C5B" stroke-width="66.6667" stroke-linecap="round"/>
<path d="M366.667 433.333C403.486 433.333 433.333 403.486 433.333 366.667C433.333 329.848 403.486 300 366.667 300C329.848 300 300 329.848 300 366.667C300 403.486 329.848 433.333 366.667 433.333Z" stroke="#749C5B" stroke-width="66.6667" stroke-linecap="round"/>
</svg>
