<svg width="280" height="280" viewBox="0 0 280 280" fill="none" xmlns="http://www.w3.org/2000/svg">
<path d="M279.36 139.982C279.36 167.573 271.179 194.544 255.85 217.484C240.522 240.425 218.735 258.305 193.245 268.864C167.754 279.422 139.706 282.185 112.645 276.802C85.5849 271.419 60.7284 258.133 41.219 238.624C21.7096 219.114 8.4235 194.258 3.04087 167.197C-2.34177 140.137 0.420795 112.088 10.9792 86.5981C21.5376 61.1078 39.4177 39.3209 62.3584 23.9924C85.299 8.66395 112.27 0.482423 139.86 0.482423C158.18 0.480109 176.321 4.0868 193.247 11.0965C210.173 18.1062 225.553 28.3816 238.507 41.3359C251.461 54.2901 261.737 69.6694 268.746 86.5953C275.756 103.521 279.363 121.662 279.36 139.982ZM220.914 88.2492H199.188V75.9678C199.183 74.4131 198.564 72.9233 197.464 71.824C196.365 70.7246 194.875 70.1049 193.32 70.1003H62.0843C60.5296 70.1049 59.0399 70.7246 57.9405 71.824C56.8411 72.9233 56.2214 74.4131 56.2168 75.9678V185.108C56.2168 188.332 56.2696 192.033 56.3225 193.337L56.5339 194.482C57.2178 198.022 58.9134 201.287 61.4153 203.883C63.9172 206.479 67.1181 208.293 70.6302 209.107L71.9693 209.424C73.5552 209.512 77.4669 209.6 80.6914 209.6H206.606C209.352 209.6 212.071 209.059 214.607 208.008C217.144 206.956 219.448 205.416 221.389 203.473C223.33 201.531 224.869 199.225 225.918 196.688C226.967 194.15 227.506 191.431 227.504 188.685V94.8215C227.494 93.0783 226.797 91.4093 225.562 90.1782C224.328 88.9472 222.657 88.2538 220.914 88.2492ZM176.511 104.689H79.7223V118.627H176.475L176.511 104.689ZM120.883 135.243H79.7399V179.417H120.901L120.883 135.243ZM175.189 165.585H136.072V179.54H175.189V165.585ZM175.224 135.172H136.107V149.11H175.224V135.172ZM213.531 102.187V188.685C213.531 190.531 212.798 192.301 211.492 193.606C210.187 194.912 208.417 195.645 206.571 195.645C204.725 195.645 202.955 194.912 201.649 193.606C200.344 192.301 199.611 190.531 199.611 188.685V102.187H213.531Z" fill="#32AE60"/>
</svg>
