<svg width="217" height="217" viewBox="0 0 217 217" fill="none" xmlns="http://www.w3.org/2000/svg">
<path d="M216.71 108.79C216.71 130.16 210.373 151.051 198.5 168.821C186.627 186.59 169.751 200.439 150.007 208.618C130.263 216.796 108.537 218.936 87.5767 214.767C66.6164 210.597 47.3631 200.306 32.2516 185.195C17.1401 170.083 6.84904 150.83 2.67978 129.87C-1.48948 108.909 0.650333 87.1835 8.82863 67.4394C17.0069 47.6952 30.8564 30.8196 48.6256 18.9466C66.3949 7.07354 87.2859 0.736329 108.657 0.736329C122.847 0.734536 136.899 3.52819 150.009 8.95774C163.12 14.3873 175.032 22.3464 185.066 32.3804C195.1 42.4144 203.059 54.3268 208.489 67.4373C213.918 80.5477 216.712 94.5993 216.71 108.79ZM171.439 68.7183H154.61V59.2055C154.607 58.0012 154.127 56.8473 153.275 55.9957C152.424 55.1442 151.27 54.6642 150.066 54.6606H48.4134C47.2091 54.6642 46.0552 55.1442 45.2037 55.9957C44.3521 56.8473 43.8721 58.0012 43.8685 59.2055V143.743C43.8685 146.24 43.9095 149.107 43.9504 150.116L44.1142 151.004C44.6439 153.745 45.9573 156.275 47.8952 158.285C49.8331 160.296 52.3124 161.701 55.0328 162.332L56.0701 162.577C57.2984 162.646 60.3283 162.714 62.826 162.714H160.356C162.483 162.714 164.589 162.295 166.554 161.48C168.519 160.666 170.304 159.473 171.807 157.968C173.31 156.463 174.502 154.677 175.315 152.712C176.128 150.747 176.545 148.64 176.543 146.513V73.8091C176.536 72.4588 175.996 71.166 175.039 70.2125C174.083 69.2589 172.789 68.7219 171.439 68.7183ZM137.045 81.4521H62.0753V92.2479H137.018L137.045 81.4521ZM93.9576 105.118H62.089V139.334H93.9713L93.9576 105.118ZM136.022 128.62H105.722V139.43H136.022V128.62ZM136.049 105.064H105.75V115.859H136.049V105.064ZM165.72 79.5141V146.513C165.72 147.943 165.152 149.314 164.141 150.325C163.13 151.336 161.759 151.904 160.329 151.904C158.899 151.904 157.528 151.336 156.517 150.325C155.506 149.314 154.938 147.943 154.938 146.513V79.5141H165.72Z" fill="#749C5B"/>
</svg>
