<svg width="191" height="191" viewBox="0 0 191 191" fill="none" xmlns="http://www.w3.org/2000/svg">
<mask id="mask0_8149_240" style="mask-type:luminance" maskUnits="userSpaceOnUse" x="0" y="0" width="191" height="191">
<path d="M190.889 0.888672H0.888672V190.889H190.889V0.888672Z" fill="white"/>
</mask>
<g mask="url(#mask0_8149_240)">
<path d="M170.507 106.348H21.2744V115.294H170.507V106.348Z" fill="#749C5B"/>
<path d="M28.736 143.666H37.0585V132.915H154.723V143.666H163.046L170.507 120.125H21.2744L28.736 143.666Z" fill="#749C5B"/>
<path d="M149.653 137.992H42.125V190.912H149.653V137.992Z" fill="#749C5B"/>
<path d="M95.8921 52.4972C110.139 52.4972 121.688 40.9482 121.688 26.7017C121.688 12.4553 110.139 0.90625 95.8921 0.90625C81.6457 0.90625 70.0967 12.4553 70.0967 26.7017C70.0967 40.9482 81.6457 52.4972 95.8921 52.4972Z" fill="#749C5B"/>
<path d="M95.8901 59.1465C64.2897 59.1465 56.5527 100.906 56.5527 100.906H135.228C135.228 100.906 127.491 59.1465 95.8901 59.1465Z" fill="#749C5B"/>
</g>
</svg>
