<svg width="800" height="800" viewBox="0 0 800 800" fill="none" xmlns="http://www.w3.org/2000/svg">
<path d="M400 66.666C216.2 66.666 66.667 216.199 66.667 399.999V538.099C66.667 572.233 96.567 599.999 133.334 599.999H166.667C175.508 599.999 183.986 596.487 190.237 590.236C196.488 583.985 200 575.507 200 566.666V395.233C200 386.392 196.488 377.914 190.237 371.662C183.986 365.411 175.508 361.899 166.667 361.899H136.4C154.934 232.899 265.934 133.333 400 133.333C534.067 133.333 645.067 232.899 663.6 361.899H633.334C624.493 361.899 616.015 365.411 609.763 371.662C603.512 377.914 600 386.392 600 395.233V599.999C600 636.766 570.1 666.666 533.334 666.666H466.667V633.333H333.334V733.333H533.334C606.867 733.333 666.667 673.533 666.667 599.999C703.434 599.999 733.334 572.233 733.334 538.099V399.999C733.334 216.199 583.8 66.666 400 66.666Z" fill="#749C5B"/>
</svg>
