<svg width="24" height="25" viewBox="0 0 24 25" fill="none" xmlns="http://www.w3.org/2000/svg">
<path d="M5.80637 0.988281C6.2606 0.988281 6.62884 1.3255 6.62884 1.74147V3.26079C7.35838 3.24783 8.17614 3.24783 9.09624 3.24783H13.4828C14.4028 3.24783 15.2206 3.24783 15.9502 3.26079V1.74147C15.9502 1.3255 16.3184 0.988281 16.7726 0.988281C17.2269 0.988281 17.595 1.3255 17.595 1.74147V3.32743C19.1735 3.44317 20.2097 3.72724 20.971 4.42439C21.7322 5.12153 22.0424 6.07044 22.1688 7.51588V8.60382H0.410156V7.51588C0.536552 6.07044 0.846744 5.12153 1.60801 4.42439C2.3693 3.72724 3.40549 3.44317 4.98389 3.32743V1.74147C4.98389 1.3255 5.35213 0.988281 5.80637 0.988281Z" fill="#749c5b"/>
<path opacity="0.5" d="M22.1688 14.0451V11.8693C22.1688 10.9565 22.1549 9.32924 22.1409 8.60547H0.416456C0.402422 9.32924 0.416217 10.9565 0.416217 11.8693V14.0451C0.416217 18.148 0.416217 20.1995 1.69045 21.474C2.96469 22.7486 5.01553 22.7486 9.11725 22.7486H13.4678C17.5694 22.7486 19.6203 22.7486 20.8946 21.474C22.1688 20.1995 22.1688 18.148 22.1688 14.0451Z" fill="#749c5b"/>
<path fill-rule="evenodd" clip-rule="evenodd" d="M18.6348 16.7629C17.2828 16.7629 16.1868 17.859 16.1868 19.211C16.1868 20.563 17.2828 21.6591 18.6348 21.6591C19.9868 21.6591 21.0829 20.563 21.0829 19.211C21.0829 17.859 19.9868 16.7629 18.6348 16.7629ZM14.5547 19.211C14.5547 16.9576 16.3814 15.1309 18.6348 15.1309C20.8883 15.1309 22.715 16.9576 22.715 19.211C22.715 20.0426 22.4662 20.8161 22.039 21.4611L23.564 22.9862C23.8827 23.3049 23.8827 23.8215 23.564 24.1402C23.2453 24.4589 22.7287 24.4589 22.41 24.1402L20.8849 22.6152C20.2399 23.0423 19.4664 23.2912 18.6348 23.2912C16.3814 23.2912 14.5547 21.4645 14.5547 19.211Z" fill="#749c5b"/>
</svg>
