<svg width="22" height="21" viewBox="0 0 22 21" fill="none" xmlns="http://www.w3.org/2000/svg">
<path d="M4.25 13.5C4.25 12.5335 5.0335 11.75 6 11.75H16C16.9665 11.75 17.75 12.5335 17.75 13.5C17.75 15.0188 16.5188 16.25 15 16.25H7C5.48122 16.25 4.25 15.0188 4.25 13.5Z" fill="white"/>
<path d="M5.62825 4.76581C5.86962 2.75442 5.9903 1.74872 6.57198 1.06161C6.75659 0.84355 6.97139 0.65298 7.2099 0.49567C7.96141 8.9407e-08 8.97432 0 11.0001 0C13.026 0 14.0389 8.9407e-08 14.7904 0.49567C15.0289 0.65298 15.2437 0.84355 15.4283 1.06161C16.01 1.74872 16.1307 2.75442 16.372 4.76581L16.463 5.52342C16.7134 7.61087 16.8387 8.6546 16.2419 9.3273C15.6451 10 14.5939 10 12.4914 10H9.5088C7.40642 10 6.35521 10 5.7584 9.3273C5.1616 8.6546 5.28684 7.61087 5.53734 5.52342L5.62825 4.76581Z" fill="white"/>
<g opacity="0.5">
<path d="M1 8.75C0.58579 8.75 0.25 9.0858 0.25 9.5C0.25 9.9142 0.58579 10.25 1 10.25C1.82738 10.25 2.28947 10.3422 2.57378 10.4676C2.82305 10.5776 2.98353 10.7334 3.15499 11.0153C3.18539 11.0653 3.19799 11.0863 3.21147 11.111C3.22448 11.135 3.24208 11.1695 3.2738 11.2379C3.32447 11.3472 3.34889 11.4184 3.42333 11.6417L4.28849 14.2372C4.32093 14.3345 4.37138 14.4207 4.43491 14.4934C4.3155 14.1853 4.25 13.8503 4.25 13.5C4.25 12.8545 4.59952 12.2906 5.11965 11.9872L4.84069 11.1504C4.77196 10.9441 4.72347 10.7986 4.63468 10.6071C4.5488 10.4218 4.50507 10.3485 4.43659 10.2359C4.15168 9.7674 3.78052 9.3604 3.17911 9.0952C2.61274 8.8454 1.90513 8.75 1 8.75Z" fill="white"/>
<path d="M11.75 11.75H10.25V10H11.75V11.75Z" fill="white"/>
<path d="M17.5651 14.4934C17.6845 14.1853 17.75 13.8503 17.75 13.5C17.75 12.8545 17.4005 12.2906 16.8804 11.9872L17.1593 11.1504C17.228 10.9442 17.2765 10.7986 17.3653 10.6071C17.4512 10.4218 17.4949 10.3485 17.5634 10.2359C17.8483 9.7674 18.2195 9.3604 18.8209 9.0952C19.3873 8.8454 20.0949 8.75 21 8.75C21.4142 8.75 21.75 9.0858 21.75 9.5C21.75 9.9142 21.4142 10.25 21 10.25C20.1726 10.25 19.7105 10.3422 19.4262 10.4676C19.177 10.5776 19.0165 10.7334 18.845 11.0153C18.8146 11.0653 18.802 11.0863 18.7885 11.111C18.7755 11.135 18.7579 11.1695 18.7262 11.2379C18.6755 11.3472 18.6511 11.4184 18.5767 11.6417L17.7115 14.2372C17.6791 14.3345 17.6286 14.4207 17.5651 14.4934Z" fill="white"/>
<path d="M10.2502 16.25H11.7502V17.416C12.9068 17.741 13.8304 18.6188 14.2117 19.7628C14.3427 20.1558 14.1303 20.5805 13.7374 20.7115C13.3444 20.8425 12.9197 20.6301 12.7887 20.2372C12.6117 19.7061 12.2356 19.2729 11.7502 19.0206V20C11.7502 20.4142 11.4144 20.75 11.0002 20.75C10.586 20.75 10.2502 20.4142 10.2502 20V19.0206C9.7648 19.2729 9.3887 19.7061 9.2117 20.2372C9.0807 20.6301 8.65599 20.8425 8.26303 20.7115C7.87007 20.5805 7.6577 20.1558 7.78869 19.7628C8.17004 18.6188 9.0936 17.741 10.2502 17.416V16.25Z" fill="white"/>
</g>
</svg>
