<svg width="16" height="18" viewBox="0 0 16 18" fill="none" xmlns="http://www.w3.org/2000/svg">
<path opacity="0.5" d="M15.5 12.4498V7.44972C15.5 5.0927 15.5 3.91419 14.7677 3.18195C14.1274 2.54164 13.1458 2.46126 11.3333 2.45117H4.66667C2.85414 2.46126 1.87255 2.54164 1.23223 3.18195C0.5 3.91419 0.5 5.0927 0.5 7.44972V12.4498C0.5 14.8068 0.5 15.9853 1.23223 16.7175C1.96447 17.4498 3.14298 17.4498 5.5 17.4498H10.5C12.857 17.4498 14.0355 17.4498 14.7677 16.7175C15.5 15.9853 15.5 14.8068 15.5 12.4498Z" fill="white"/>
<path d="M4.66699 2.03516C4.66699 1.3448 5.22663 0.785156 5.91699 0.785156H10.0837C10.774 0.785156 11.3337 1.3448 11.3337 2.03516V2.86849C11.3337 3.55885 10.774 4.11849 10.0837 4.11849H5.91699C5.22663 4.11849 4.66699 3.55885 4.66699 2.86849V2.03516Z" fill="white"/>
<path fill-rule="evenodd" clip-rule="evenodd" d="M3.20801 7.86914C3.20801 7.52397 3.48783 7.24414 3.83301 7.24414H4.24967C4.59485 7.24414 4.87467 7.52397 4.87467 7.86914C4.87467 8.21431 4.59485 8.49414 4.24967 8.49414H3.83301C3.48783 8.49414 3.20801 8.21431 3.20801 7.86914ZM6.12467 7.86914C6.12467 7.52397 6.40451 7.24414 6.74967 7.24414H12.1663C12.5115 7.24414 12.7913 7.52397 12.7913 7.86914C12.7913 8.21431 12.5115 8.49414 12.1663 8.49414H6.74967C6.40451 8.49414 6.12467 8.21431 6.12467 7.86914ZM3.20801 10.7858C3.20801 10.4406 3.48783 10.1608 3.83301 10.1608H4.24967C4.59485 10.1608 4.87467 10.4406 4.87467 10.7858C4.87467 11.131 4.59485 11.4108 4.24967 11.4108H3.83301C3.48783 11.4108 3.20801 11.131 3.20801 10.7858ZM6.12467 10.7858C6.12467 10.4406 6.40451 10.1608 6.74967 10.1608H12.1663C12.5115 10.1608 12.7913 10.4406 12.7913 10.7858C12.7913 11.131 12.5115 11.4108 12.1663 11.4108H6.74967C6.40451 11.4108 6.12467 11.131 6.12467 10.7858ZM3.20801 13.7025C3.20801 13.3573 3.48783 13.0775 3.83301 13.0775H4.24967C4.59485 13.0775 4.87467 13.3573 4.87467 13.7025C4.87467 14.0476 4.59485 14.3275 4.24967 14.3275H3.83301C3.48783 14.3275 3.20801 14.0476 3.20801 13.7025ZM6.12467 13.7025C6.12467 13.3573 6.40451 13.0775 6.74967 13.0775H12.1663C12.5115 13.0775 12.7913 13.3573 12.7913 13.7025C12.7913 14.0476 12.5115 14.3275 12.1663 14.3275H6.74967C6.40451 14.3275 6.12467 14.0476 6.12467 13.7025Z" fill="white"/>
</svg>
