<svg width="21" height="21" viewBox="0 0 21 21" fill="none" xmlns="http://www.w3.org/2000/svg">
<path fill-rule="evenodd" clip-rule="evenodd" d="M4.61628 1.44776C3.75391 2.30957 3.75391 3.69665 3.75391 6.4708V14.3173C3.75391 17.0914 3.75391 18.4785 4.61628 19.3403C5.47866 20.2021 6.86663 20.2021 9.64258 20.2021H11.6055C14.3814 20.2021 15.7693 20.2021 16.6317 19.3403C17.4941 18.4785 17.4941 17.0914 17.4941 14.3173V6.4708C17.4941 3.69665 17.4941 2.30957 16.6317 1.44776C15.7693 0.585938 14.3814 0.585938 11.6055 0.585938H9.64258C6.86663 0.585938 5.47866 0.585938 4.61628 1.44776ZM6.9436 15.2981C6.9436 14.8918 7.27316 14.5625 7.67969 14.5625H10.624C11.0305 14.5625 11.3601 14.8918 11.3601 15.2981C11.3601 15.7043 11.0305 16.0337 10.624 16.0337H7.67969C7.27316 16.0337 6.9436 15.7043 6.9436 15.2981ZM7.67969 10.6392C7.27316 10.6392 6.9436 10.9686 6.9436 11.3748C6.9436 11.7811 7.27316 12.1105 7.67969 12.1105H13.5684C13.9749 12.1105 14.3044 11.7811 14.3044 11.3748C14.3044 10.9686 13.9749 10.6392 13.5684 10.6392H7.67969ZM6.9436 7.45161C6.9436 7.04535 7.27316 6.716 7.67969 6.716H13.5684C13.9749 6.716 14.3044 7.04535 14.3044 7.45161C14.3044 7.85787 13.9749 8.18722 13.5684 8.18722H7.67969C7.27316 8.18722 6.9436 7.85787 6.9436 7.45161Z" fill="#749c5b"/>
<path opacity="0.5" d="M3.98772 2.60352C3.75684 3.46985 3.75684 4.68164 3.75684 6.46961V14.3161C3.75684 16.1042 3.75684 17.316 3.98774 18.1823L3.75684 18.1647C2.79984 18.0707 2.15568 17.858 1.67488 17.3775C0.8125 16.5157 0.8125 15.1286 0.8125 12.3545V8.43129C0.8125 5.65714 0.8125 4.27006 1.67488 3.40825C2.15568 2.92776 2.79984 2.71516 3.75684 2.62108L3.98772 2.60352Z" fill="#749c5b"/>
<path opacity="0.5" d="M17.2656 18.1823C17.4966 17.316 17.4966 16.1042 17.4966 14.3161V6.46961C17.4966 4.68164 17.4966 3.46985 17.2657 2.60352L17.4966 2.62108C18.4536 2.71516 19.0978 2.92776 19.5785 3.40825C20.4409 4.27006 20.4409 5.65714 20.4409 8.43129V12.3545C20.4409 15.1286 20.4409 16.5157 19.5785 17.3775C19.0978 17.858 18.4536 18.0707 17.4966 18.1647L17.2656 18.1823Z" fill="#749c5b"/>
</svg>
