<svg width="15" height="22" viewBox="0 0 15 22" fill="none" xmlns="http://www.w3.org/2000/svg">
<path opacity="0.5" fill-rule="evenodd" clip-rule="evenodd" d="M1.5 0.75C1.5 0.33579 1.16421 0 0.75 0C0.33579 0 0 0.33579 0 0.75V20.75C0 21.1642 0.33579 21.5 0.75 21.5C1.16421 21.5 1.5 21.1642 1.5 20.75V12.6V2.6V0.75Z" fill="white"/>
<path d="M8.3486 2.78996L8.1449 2.7085C6.5821 2.08337 4.8712 1.92629 3.22067 2.2564L1.5 2.60053V12.6005L3.22067 12.2564C4.8712 11.9263 6.5821 12.0834 8.1449 12.7085C9.8385 13.3859 11.7024 13.5124 13.472 13.07L13.6864 13.0164C14.3115 12.8602 14.75 12.2985 14.75 11.6543V4.28722C14.75 3.50666 14.0165 2.93392 13.2592 3.12323C11.628 3.53104 9.9097 3.41442 8.3486 2.78996Z" fill="white"/>
</svg>
