<svg width="20" height="21" viewBox="0 0 20 21" fill="none" xmlns="http://www.w3.org/2000/svg">
<path fill-rule="evenodd" clip-rule="evenodd" d="M3.33301 4.41992V16.0866C3.33301 17.4673 4.4523 18.5866 5.83301 18.5866H14.1663C15.5471 18.5866 16.6663 17.4673 16.6663 16.0866V7.75325C16.6663 6.37254 15.5471 5.25326 14.1663 5.25326H4.16634C3.70611 5.25326 3.33301 4.88016 3.33301 4.41992ZM6.04134 10.2532C6.04134 9.90805 6.32117 9.62822 6.66634 9.62822H13.333C13.6782 9.62822 13.958 9.90805 13.958 10.2532C13.958 10.5984 13.6782 10.8782 13.333 10.8782H6.66634C6.32117 10.8782 6.04134 10.5984 6.04134 10.2532ZM6.04134 13.1699C6.04134 12.8247 6.32117 12.5449 6.66634 12.5449H11.2497C11.5948 12.5449 11.8747 12.8247 11.8747 13.1699C11.8747 13.5151 11.5948 13.7949 11.2497 13.7949H6.66634C6.32117 13.7949 6.04134 13.5151 6.04134 13.1699Z" fill="white"/>
<path opacity="0.5" d="M14.9997 3.84081V5.39469C14.739 5.30257 15.0222 6.92773 15.6107 14.661L9.97834 17.4617L5.39149 13.4548C4.93125 13.4548 3.33301 4.87934 3.33301 4.41911V4.3599C3.33301 3.91572 3.65962 3.53913 4.09933 3.47632L13.0973 2.19089C14.1013 2.04745 14.9997 2.82656 14.9997 3.84081Z" fill="white"/>
</svg>
