<svg width="32" height="35" viewBox="0 0 32 35" fill="none" xmlns="http://www.w3.org/2000/svg">
<path d="M9.46289 17.3535H11.062M22.2558 17.3535H15.8593" stroke="#749C5B" stroke-width="2.39867" stroke-linecap="round"/>
<path d="M22.2558 10.957H20.6567M15.8593 10.957H9.46289" stroke="#749C5B" stroke-width="2.39867" stroke-linecap="round"/>
<path d="M9.46289 23.75H17.4585" stroke="#749C5B" stroke-width="2.39867" stroke-linecap="round"/>
<path d="M1.46777 20.5526V14.1562C1.46777 8.12555 1.46777 5.11024 3.34125 3.23675C5.21474 1.36328 8.23004 1.36328 14.2607 1.36328H17.4589C23.4895 1.36328 26.5049 1.36328 28.3783 3.23675C29.4228 4.28128 29.885 5.68071 30.0895 7.75973M30.2518 14.1562V20.5526C30.2518 26.5832 30.2518 29.5987 28.3783 31.472C26.5049 33.3455 23.4895 33.3455 17.4589 33.3455H14.2607C8.23004 33.3455 5.21474 33.3455 3.34125 31.472C2.29674 30.4275 1.83456 29.0281 1.63007 26.9491" stroke="#749C5B" stroke-width="2.39867" stroke-linecap="round"/>
</svg>
