<svg width="20" height="21" viewBox="0 0 20 21" fill="none" xmlns="http://www.w3.org/2000/svg">
<path opacity="0.5" fill-rule="evenodd" clip-rule="evenodd" d="M11.4311 0.783099C11.0608 0.630859 10.5913 0.630859 9.65234 0.630859C8.71334 0.630859 8.24384 0.630859 7.87354 0.783099C7.37974 0.986089 6.98743 1.37544 6.7829 1.86549C6.68953 2.0892 6.65299 2.34936 6.63869 2.72885C6.61768 3.28654 6.3295 3.80275 5.84251 4.08179C5.35552 4.36082 4.76098 4.3504 4.26383 4.08962C3.92552 3.91216 3.68023 3.81348 3.43833 3.78188C2.90843 3.71264 2.37252 3.85515 1.9485 4.17806C1.63048 4.42024 1.39573 4.82376 0.926242 5.63079C0.456752 6.43783 0.222011 6.84134 0.169691 7.23577C0.0999215 7.76166 0.243521 8.29352 0.568891 8.71436C0.717401 8.90646 0.926112 9.06786 1.25004 9.26986C1.72625 9.56686 2.03266 10.0728 2.03263 10.6309C2.0326 11.189 1.7262 11.6948 1.25004 11.9917C0.926062 12.1938 0.717312 12.3553 0.568792 12.5474C0.243422 12.9682 0.0998316 13.5 0.169592 14.0259C0.221912 14.4203 0.456661 14.8239 0.926141 15.6309C1.39563 16.4379 1.63038 16.8415 1.9484 17.0836C2.37242 17.4065 2.90833 17.549 3.43823 17.4798C3.68012 17.4482 3.92539 17.3495 4.26367 17.1721C4.76086 16.9113 5.35544 16.9009 5.84246 17.1799C6.32948 17.459 6.61767 17.9752 6.63869 18.533C6.65299 18.9124 6.68953 19.1726 6.7829 19.3963C6.98743 19.8863 7.37974 20.2757 7.87354 20.4787C8.24384 20.6309 8.71334 20.6309 9.65234 20.6309C10.5913 20.6309 11.0608 20.6309 11.4311 20.4787C11.9249 20.2757 12.3172 19.8863 12.5217 19.3963C12.6151 19.1726 12.6517 18.9124 12.666 18.5329C12.687 17.9752 12.9751 17.459 13.4621 17.1799C13.9491 16.9008 14.5437 16.9113 15.0409 17.1721C15.3792 17.3495 15.6244 17.4481 15.8663 17.4797C16.3962 17.549 16.9321 17.4065 17.3561 17.0836C17.6742 16.8414 17.9089 16.4379 18.3784 15.6308C18.8479 14.8238 19.0826 14.4203 19.135 14.0259C19.2047 13.5 19.0611 12.9681 18.7358 12.5473C18.5872 12.3552 18.3785 12.1937 18.0545 11.9917C17.5784 11.6948 17.272 11.1889 17.272 10.6308C17.272 10.0727 17.5784 9.56696 18.0545 9.27006C18.3786 9.06796 18.5873 8.90656 18.7359 8.71436C19.0612 8.29359 19.2048 7.76173 19.1351 7.23583C19.0827 6.84141 18.848 6.43789 18.3785 5.63086C17.909 4.82383 17.6743 4.42031 17.3562 4.17813C16.9322 3.85522 16.3963 3.71271 15.8664 3.78195C15.6245 3.81355 15.3792 3.91222 15.041 4.08966C14.5438 4.35045 13.9492 4.36088 13.4622 4.08182C12.9752 3.80277 12.687 3.28652 12.6659 2.7288C12.6516 2.34934 12.6151 2.08919 12.5217 1.86549C12.3172 1.37544 11.9249 0.986089 11.4311 0.783099Z" fill="#749c5b"/>
<path d="M12.6746 10.6309C12.6746 12.2878 11.3213 13.6309 9.65176 13.6309C7.98226 13.6309 6.62891 12.2878 6.62891 10.6309C6.62891 8.97396 7.98226 7.63086 9.65176 7.63086C11.3213 7.63086 12.6746 8.97396 12.6746 10.6309Z" fill="#749c5b"/>
</svg>
