<svg width="20" height="21" viewBox="0 0 20 21" fill="none" xmlns="http://www.w3.org/2000/svg">
<path d="M9.99967 10.8685C11.1047 10.8685 12.1646 10.4295 12.946 9.6481C13.7274 8.8667 14.1663 7.80689 14.1663 6.70182C14.1663 5.59675 13.7274 4.53695 12.946 3.75554C12.1646 2.97414 11.1047 2.53516 9.99967 2.53516C8.89461 2.53516 7.8348 2.97414 7.0534 3.75554C6.27199 4.53695 5.83301 5.59675 5.83301 6.70182C5.83301 7.80689 6.27199 8.8667 7.0534 9.6481C7.8348 10.4295 8.89461 10.8685 9.99967 10.8685Z" fill="white"/>
<path opacity="0.35" d="M9.9998 12.9531C5.8248 12.9531 2.4248 15.7531 2.4248 19.2031C2.4248 19.4365 2.60814 19.6198 2.84147 19.6198H17.1581C17.3915 19.6198 17.5748 19.4365 17.5748 19.2031C17.5748 15.7531 14.1748 12.9531 9.9998 12.9531Z" fill="white"/>
<path opacity="0.5" d="M14.1016 16.3414C14.1016 15.2938 14.1016 14.77 14.427 14.4446C14.7524 14.1191 15.2762 14.1191 16.3238 14.1191H16.8793C17.9269 14.1191 18.4507 14.1191 18.7761 14.4446C19.1016 14.77 19.1016 15.2938 19.1016 16.3414V17.4525C19.1016 18.5 19.1016 19.0238 18.7761 19.3493C18.4507 19.6747 17.9269 19.6747 16.8793 19.6747H16.3238C15.2762 19.6747 14.7524 19.6747 14.427 19.3493C14.1016 19.0238 14.1016 18.5 14.1016 17.4525V16.3414Z" fill="white"/>
<path fill-rule="evenodd" clip-rule="evenodd" d="M15.2832 16.8978C15.2832 16.7827 15.3765 16.6895 15.4915 16.6895H17.7138C17.8288 16.6895 17.9221 16.7827 17.9221 16.8978C17.9221 17.0128 17.8288 17.1061 17.7138 17.1061H15.4915C15.3765 17.1061 15.2832 17.0128 15.2832 16.8978Z" fill="white"/>
<path fill-rule="evenodd" clip-rule="evenodd" d="M15.2832 15.7845C15.2832 15.6694 15.3765 15.5762 15.4915 15.5762H17.7138C17.8288 15.5762 17.9221 15.6694 17.9221 15.7845C17.9221 15.8996 17.8288 15.9928 17.7138 15.9928H15.4915C15.3765 15.9928 15.2832 15.8996 15.2832 15.7845Z" fill="white"/>
<path fill-rule="evenodd" clip-rule="evenodd" d="M15.2832 18.0072C15.2832 17.8921 15.3765 17.7988 15.4915 17.7988H16.8804C16.9955 17.7988 17.0888 17.8921 17.0888 18.0072C17.0888 18.1222 16.9955 18.2155 16.8804 18.2155H15.4915C15.3765 18.2155 15.2832 18.1222 15.2832 18.0072Z" fill="white"/>
</svg>
