<svg width="25" height="25" viewBox="0 0 25 25" fill="none" xmlns="http://www.w3.org/2000/svg">
<path d="M12.6934 12.1309C14.0194 12.1309 15.2912 11.6041 16.2289 10.6664C17.1666 9.72871 17.6934 8.45694 17.6934 7.13086C17.6934 5.80478 17.1666 4.53301 16.2289 3.59533C15.2912 2.65764 14.0194 2.13086 12.6934 2.13086C11.3673 2.13086 10.0955 2.65764 9.15783 3.59533C8.22014 4.53301 7.69336 5.80478 7.69336 7.13086C7.69336 8.45694 8.22014 9.72871 9.15783 10.6664C10.0955 11.6041 11.3673 12.1309 12.6934 12.1309Z" fill="#749c5b"/>
<path opacity="0.35" d="M12.6935 14.6309C7.68352 14.6309 3.60352 17.9909 3.60352 22.1309C3.60352 22.4109 3.82352 22.6309 4.10352 22.6309H21.2835C21.5635 22.6309 21.7835 22.4109 21.7835 22.1309C21.7835 17.9909 17.7035 14.6309 12.6935 14.6309Z" fill="#749c5b"/>
<path opacity="0.5" d="M17.6152 18.6979C17.6152 17.4408 17.6152 16.8123 18.0058 16.4218C18.3963 16.0313 19.0248 16.0312 20.2819 16.0312H20.9486C22.2056 16.0312 22.8342 16.0313 23.2247 16.4218C23.6152 16.8123 23.6152 17.4408 23.6152 18.6979V20.0312C23.6152 21.2883 23.6152 21.9169 23.2247 22.3074C22.8342 22.6979 22.2056 22.6979 20.9486 22.6979H20.2819C19.0248 22.6979 18.3963 22.6979 18.0058 22.3074C17.6152 21.9169 17.6152 21.2883 17.6152 20.0312V18.6979Z" fill="#749c5b"/>
<path fill-rule="evenodd" clip-rule="evenodd" d="M19.0332 19.3652C19.0332 19.2272 19.1451 19.1152 19.2832 19.1152H21.9499C22.0879 19.1152 22.1999 19.2272 22.1999 19.3652C22.1999 19.5033 22.0879 19.6152 21.9499 19.6152H19.2832C19.1451 19.6152 19.0332 19.5033 19.0332 19.3652Z" fill="#749c5b"/>
<path fill-rule="evenodd" clip-rule="evenodd" d="M19.0332 18.0312C19.0332 17.8932 19.1451 17.7812 19.2832 17.7812H21.9499C22.0879 17.7812 22.1999 17.8932 22.1999 18.0312C22.1999 18.1693 22.0879 18.2812 21.9499 18.2812H19.2832C19.1451 18.2812 19.0332 18.1693 19.0332 18.0312Z" fill="#749c5b"/>
<path fill-rule="evenodd" clip-rule="evenodd" d="M19.0332 20.6973C19.0332 20.5592 19.1451 20.4473 19.2832 20.4473H20.9499C21.0879 20.4473 21.1999 20.5592 21.1999 20.6973C21.1999 20.8353 21.0879 20.9473 20.9499 20.9473H19.2832C19.1451 20.9473 19.0332 20.8353 19.0332 20.6973Z" fill="#749c5b"/>
</svg>
